# xmcd CD database file
#
# Track frame offsets:
#	150
#	22655
#	39570
#	55543
#	73367
#	90308
#	106126
#	126440
#	141911
#	156879
#	171943
#	188694
#
# Disc length: 2767 seconds
#
# Revision: 2
# Processed by: cddbd v1.5.2PL0 Copyright (c) Steve Scherf et al.
# Submitted via: CDex 2.21
#
DISCID=9a0acd0c
DTITLE=Collin Raye - Never Going Back
DYEAR=2009
DGENRE=Country
TTITLE0=Never Going Back
TTITLE1=Take Care of You
TTITLE2=Don't Tell Me You're Not In Lov
TTITLE3=Without You (with Susan Ashton)
TTITLE4=Mid-Life Chrysler
TTITLE5=You Get Me
TTITLE6=Where It Leads
TTITLE7=The Cross
TTITLE8=Stuck in the Middle With You
TTITLE9=The Only Jesus
TTITLE10=I Love You This Much
TTITLE11=She's With Me
EXTD=YEAR: 2009
EXTT0=
EXTT1=
EXTT2=
EXTT3=
EXTT4=
EXTT5=
EXTT6=
EXTT7=
EXTT8=
EXTT9=
EXTT10=
EXTT11=
PLAYORDER=
